<svg xmlns="http://www.w3.org/2000/svg" xmlns:xlink="http://www.w3.org/1999/xlink" id="Camada_1" data-name="Camada 1" viewBox="0 0 512 512"><defs><style>.cls-1{fill:#08141e;}.cls-2{fill:url(#Gradiente_sem_nome_7);}.cls-3{fill:#f4f4f4;}</style><linearGradient id="Gradiente_sem_nome_7" x1="25.62" y1="455.64" x2="354.07" y2="172.49" gradientUnits="userSpaceOnUse"><stop offset="0" stop-color="#0072f6"></stop><stop offset="1" stop-color="#07e5f0"></stop></linearGradient></defs><title>4</title><path class="cls-1" d="M316.83,253.24v5.69c0-1,0-1.93,0-2.93S316.79,254.14,316.83,253.24Z"></path><path class="cls-2" d="M498.6,422.48c-11.58,4.89-26,9.09-43.31,12.64A285.22,285.22,0,0,1,398,440.46q-33.54,0-60.53-7c-3.55-.93-7-1.93-10.34-3-3.55-1.14-7-2.38-10.33-3.75h0l-1.31-.52q-34.68-14.26-57-38.93t-32.62-58.26a231.12,231.12,0,0,1-8.69-42.38A276.54,276.54,0,0,1,215.57,256q0-6.88.41-13.64A161.44,161.44,0,0,0,214.65,207q-3.15-19.49-10.11-30.52-12.71-20-47.44-20c-7.13,0-14.71.35-22.74,1l-.24,0A23.11,23.11,0,0,0,113,180.53V426.65H13.4V91.59q25.38-7.34,65.5-13.68a538.49,538.49,0,0,1,84.2-6.37q44.75,0,74.52,11.71,25.68,10.08,42.14,27.43c1.75,1.82,3.41,3.72,5,5.65q17.37,21.39,24.7,50.78t7.38,65.5v20.63c0,.9,0,1.83,0,2.76s0,2,0,2.93c.27,21.22,3.72,39.17,10.33,53.74a79.64,79.64,0,0,0,10,16.58,3.72,3.72,0,0,0,.38.44q20.36,25.53,70.52,25.53a240.76,240.76,0,0,0,38.62-3.34q7.85-1.26,15.22-3.09A22.12,22.12,0,0,1,489,366.56Z"></path><path class="cls-3" d="M447.3,76.54a246.31,246.31,0,0,0-51.27-5q-42.63,0-75.9,14.68a182.4,182.4,0,0,0-23.42,12.36c1.41,1.56,2.75,3.11,4.06,4.72,13.47,16.54,23.12,36.35,28.77,58.82a250.75,250.75,0,0,1,5.13,27.14c1.17-1.75,2.45-3.47,3.76-5.16q21.65-27.28,65.6-27.32a161.34,161.34,0,0,1,37.31,4q4.67,1.14,9.15,2.37a22.18,22.18,0,0,0,27.4-15.77l14.71-56.5A251.53,251.53,0,0,0,447.3,76.54Z"></path></svg>