<svg xmlns="http://www.w3.org/2000/svg" xmlns:xlink="http://www.w3.org/1999/xlink" id="Camada_1" x="0px" y="0px" viewBox="0 0 1323.5 356" style="enable-background:new 0 0 1323.5 356;" xml:space="preserve"><style type="text/css">	.st0{fill:url(#SVGID_1_);}	.st1{fill:url(#SVGID_2_);}	.st2{fill:url(#SVGID_3_);}	.st3{fill:url(#SVGID_4_);}	.st4{fill:#F4F4F4;}</style><linearGradient id="SVGID_1_" gradientUnits="userSpaceOnUse" x1="62.0417" y1="683.8707" x2="161.1817" y2="436.0207" gradientTransform="matrix(1 0 0 1 0 -434)">	<stop offset="0" style="stop-color:#0072F6"></stop>	<stop offset="1" style="stop-color:#07E5F0"></stop></linearGradient><path class="st0" d="M154.9,177.5V268h-45.4v-85c0-14.7-1.9-25-5.8-31.1s-11.1-9.1-21.6-9.1c-3.2,0-6.7,0.1-10.3,0.4 s-6.9,0.7-9.8,1.1V268H16.6V113.2c9.8-2.7,19.8-4.7,29.9-6.2c12.7-2,25.5-2.9,38.4-2.9c13.6,0,24.9,1.8,34,5.3s16.2,8.6,21.5,15.1 c2.2,2.8,4.2,5.7,5.9,8.9c1.1,2,2,4,2.8,6.1c0.9,2.4,1.8,4.9,2.4,7.4c0.1,0.2,0.1,0.5,0.2,0.8C153.9,157.5,155,167.5,154.9,177.5z"></path><linearGradient id="SVGID_2_" gradientUnits="userSpaceOnUse" x1="179.4224" y1="730.8229" x2="278.5624" y2="482.9729" gradientTransform="matrix(1 0 0 1 0 -434)">	<stop offset="0" style="stop-color:#0072F6"></stop>	<stop offset="1" style="stop-color:#07E5F0"></stop></linearGradient><path class="st1" d="M294.5,153.1c-3.5-9.8-9-18.9-16.1-26.5c-2.4-2.5-4.9-4.9-7.6-7l0,0c-2.3-1.8-4.8-3.5-7.3-5 c-2.2-1.3-4.5-2.6-6.9-3.7c-1-0.5-2-0.9-3.1-1.4c-20.4-8.1-43-8.1-63.4,0c-9.4,3.9-17.9,9.7-25,17.1c-2.3,2.4-4.4,5-6.4,7.7 c1.4,3.5,2.6,7,3.5,10.7c2.5,10.7,3.8,21.6,3.7,32.5v72.8c6.7,6.8,14.7,12.3,23.6,15.9c10.2,4.2,21.1,6.2,32.1,6.1 c12,0,22.8-2,32.5-6.1c9.4-3.9,17.9-9.8,24.9-17.2c7.1-7.7,12.5-16.9,15.9-26.8c0.2-0.5,0.4-1,0.5-1.5c0.9-2.8,1.7-5.7,2.4-8.6l0,0 c0.7-3.4,1.3-6.8,1.8-10.3c0.6-4.7,0.8-9.4,0.8-14.1C300.5,175.9,298.5,164.2,294.5,153.1z M245.6,221c-5.6,8.2-13.6,12.3-23.9,12.3 s-18.4-4.1-24.1-12.3c-5.7-8.2-8.5-19.4-8.5-33.4s2.8-25,8.5-33.1c5.7-8,13.7-12,24.1-12c10.4,0,18.3,4,23.9,12 c5.6,8,8.4,19,8.4,33.1C254,201.7,251.2,212.8,245.6,221z"></path><linearGradient id="SVGID_3_" gradientUnits="userSpaceOnUse" x1="264.2459" y1="764.7484" x2="363.3859" y2="516.8984" gradientTransform="matrix(1 0 0 1 0 -434)">	<stop offset="0" style="stop-color:#0072F6"></stop>	<stop offset="1" style="stop-color:#07E5F0"></stop></linearGradient><path class="st2" d="M428.9,107.7c-4,13.5-8.1,26.5-12.4,39.1c-0.7,2.2-1.5,4.4-2.2,6.6c-0.8,2.3-1.6,4.5-2.3,6.7 c-1.1,3.3-2.3,6.5-3.4,9.7l0,0c-1.1,3.1-2.2,6.1-3.4,9.2c-2,5.3-4,10.5-6,15.7c-0.2,0.6-0.5,1.3-0.7,1.9c-1.1,2.9-2.3,5.8-3.5,8.7 c-2.3,5.8-4.6,11.3-6.9,16.8c-1.5,3.5-3,6.9-4.5,10.3c-5.6,12.9-11.2,24.7-16.8,35.6h-37.7c-7.3-14.3-14.7-30.3-22.2-48 c2.9-10.6,4.4-21.5,4.3-32.4c0.1-13-2.1-26-6.5-38.3c-4.1-11.2-10.3-21.5-18.5-30.2c-4-4.3-8.5-8.1-13.4-11.3H315 c2,7.9,4.4,16.5,7.2,25.8s5.6,18.6,8.6,28.1c2.9,9.4,5.9,18.6,8.9,27.6s5.9,17.1,8.7,24.4c2.7-7.3,5.5-15.5,8.6-24.4 c3-8.9,6-18.1,9-27.6c3-9.4,5.8-18.8,8.6-28.1c2.8-9.3,5.2-17.8,7.3-25.8L428.9,107.7L428.9,107.7z"></path><linearGradient id="SVGID_4_" gradientUnits="userSpaceOnUse" x1="405.2513" y1="821.1546" x2="504.3914" y2="573.2946" gradientTransform="matrix(1 0 0 1 0 -434)">	<stop offset="0" style="stop-color:#0072F6"></stop>	<stop offset="1" style="stop-color:#07E5F0"></stop></linearGradient><path class="st3" d="M528.3,141.9c-2-7.8-5.9-14.9-11.4-20.7c-5.4-5.7-12.6-10.1-21.5-13.1s-20.1-4.6-33.5-4.6 c-5.3,0-10.5,0.2-15.7,0.8c-1.6,0.2-3.3,0.3-4.9,0.5l-1.8,6.1c-3.3,11.2-6.8,22.1-10.3,32.8c1.5-0.3,3-0.5,4.6-0.8 c7.6-1.1,15.2-1.7,22.9-1.7c11.6,0,19.7,2.3,24.4,7c4.7,4.7,7,10.9,7,18.6v4.3c-3.7-1-7.4-1.6-11.1-2c-5.2-0.5-10.4-0.8-15.7-0.8 c-8.5,0-17,0.9-25.3,2.6c-6.4,1.3-12.6,3.5-18.4,6.6c-2.9,7.9-5.8,15.7-8.8,23.2c-4.5,11.6-9.1,22.6-13.6,33 c0.7,3.3,1.8,6.6,3.3,9.6c3.1,6.6,8,12.2,14,16.3c6.6,4.4,14,7.4,21.8,9c9.3,1.9,18.7,2.8,28.2,2.8c16.5,0,30.5-1,42-2.9 c11.5-1.9,20.6-3.6,27.1-5V169C531.7,159.8,530.6,150.7,528.3,141.9z M488,235.1c-3.2,0.5-6.5,0.8-9.8,0.9 c-4.1,0.2-8.3,0.3-12.8,0.3c-8.3,0-14.9-1.4-19.6-4.1c-4.8-2.7-7.2-7.7-7.2-14.8c-0.1-3.2,0.7-6.4,2.5-9.1c1.7-2.5,4-4.5,6.7-5.8 c3.1-1.5,6.5-2.5,9.9-2.9c7.3-1,14.7-1,22.1-0.2c3.7,0.4,6.4,0.8,8.2,1.2L488,235.1L488,235.1z"></path><path class="st4" d="M673.6,112.3l-2.2,8.3l-3.5,13.3l-3.5,13.3l-0.4,1.4c-4.6-1.7-9.2-3.1-14-4.3c-5.6-1.3-11.3-1.9-17.1-1.8 c-13.4,0-23.4,4.2-30,12.5s-9.9,19.3-9.9,32.9c0,14.4,3.1,25.6,9.3,33.5s17,11.9,32.4,11.9c3.4,0,6.9-0.2,10.3-0.6 c0.9,5.3,2.5,10.5,4.8,15.4c3.7,7.7,9.2,14.4,16.1,19.4c-2.9,0.8-6.1,1.6-9.5,2.3c-8.6,1.7-17.4,2.5-26.2,2.4 c-14.6,0-27.2-2.2-37.8-6.5c-9.9-3.9-18.8-10-26-17.8c-6.9-7.7-12-16.8-15-26.7c-3.2-10.8-4.8-22.1-4.7-33.4 c-0.1-11.2,1.8-22.3,5.6-32.8c7.2-20.2,22.5-36.6,42.2-45c10.1-4.5,21.7-6.7,34.7-6.7c7.9-0.1,15.8,0.7,23.5,2.3 c1.8,0.4,3.5,0.8,5.3,1.3c2,0.5,3.9,1.1,5.8,1.7c2.1,0.7,4.2,1.4,6.3,2.2C671.5,111.4,672.5,111.8,673.6,112.3z"></path><path class="st4" d="M789.8,141.9v-0.1c-2-7.7-6-14.8-11.4-20.6c-5.4-5.7-12.5-10.1-21.5-13.1c-8.9-3-20.1-4.6-33.5-4.6 c-5.3,0-10.5,0.2-15.7,0.8c-5.2,0.5-10.1,1.1-14.8,1.8c-2.2,0.3-4.4,0.7-6.5,1.1l-2.1,7.9l-8.5,32.6c6.3-2.2,12.8-3.8,19.5-4.7 c7.6-1.1,15.2-1.7,22.9-1.7c11.6,0,19.7,2.3,24.4,7s7,10.9,7,18.6v4.3c-3.7-1-7.4-1.6-11.1-2c-5.2-0.5-10.4-0.8-15.7-0.8 c-8.5,0-17,0.9-25.3,2.6c-7.6,1.5-15,4.4-21.6,8.4c-6.3,3.8-11.5,9.2-15.1,15.5c-3.8,6.5-5.7,14.4-5.6,23.8c0,0.5,0,1,0,1.4 c0,1.9,0.1,3.8,0.3,5.6s0.4,3.7,0.7,5.5c0.7,4.2,2,8.3,3.8,12.2c3.1,6.6,8,12.2,14,16.3c0.6,0.4,1.2,0.8,1.9,1.2 c2,1.2,4,2.3,6.1,3.3c2,0.9,4,1.7,6,2.4c2.5,0.9,5.1,1.6,7.8,2.1c9.3,1.9,18.7,2.8,28.2,2.8c16.5,0,30.5-1,42.1-2.9 c9.7-1.6,17.6-3.1,23.7-4.3c1.2-0.2,2.3-0.5,3.4-0.7V169C793.2,159.8,792.1,150.7,789.8,141.9z M749.5,235.1 c-3.2,0.5-6.5,0.8-9.8,0.9c-4,0.2-8.3,0.3-12.8,0.3c-8.3,0-14.9-1.4-19.7-4.1c-4.8-2.7-7.2-7.7-7.2-14.8c-0.1-3.2,0.7-6.4,2.4-9.1 c1.7-2.5,4-4.5,6.7-5.8c3.1-1.5,6.5-2.5,9.9-2.9c4-0.5,8-0.8,12-0.8c3.3,0,6.7,0.2,10,0.6c3.7,0.4,6.4,0.8,8.2,1.2L749.5,235.1z"></path><path class="st4" d="M945.8,158.2c-0.5-1.7-1.1-3.4-1.7-5c-1.1-3-2.4-6-3.8-8.9c-3.2-6.4-7.4-12.3-12.5-17.5 c-7.4-7.4-16.4-13.2-26.2-16.8c-10.4-4-22.2-5.9-35.4-5.9c-5.5,0-11.2,0.2-17.2,0.8s-11.9,1.2-17.7,2s-11.3,1.8-16.6,2.9 s-10,2.3-14,3.5v27.2c2.3,9.4,3.5,19,3.4,28.6v103.3l-3.4,0.7v51.4h45.4v-60.3c5.1,2.3,10.4,4,15.9,5.2c5.8,1.3,11.7,1.9,17.7,1.8 c11.4,0,21.4-2,30.2-6.1c8.5-3.9,16.1-9.8,22-17.1c3.3-4.2,6.2-8.7,8.5-13.5c2-4.1,3.6-8.3,4.9-12.7c0.2-0.7,0.4-1.4,0.6-2 c2.8-10.4,4.1-21.1,4-31.8C949.9,177.9,948.5,167.9,945.8,158.2z M871.1,232.7c-4.7,0-9.3-0.6-13.9-1.8c-3.9-1-7.7-2.5-11.1-4.6v-82 c2.2-0.4,5.1-0.8,8.5-1.1s7.2-0.4,11.3-0.4c12.4,0,21.7,4.2,28,12.6c6.3,8.4,9.4,19.7,9.5,33.7C903.4,218.2,892.7,232.7,871.1,232.7 z"></path><path class="st4" d="M996.7,107.7V268h-45.4v-31.1c1.7-3.9,3.2-7.9,4.5-12c3.5-12,5.1-24.5,5-37c0.2-13.1-2-26.1-6.3-38.5 c-1-2.6-2-5.2-3.2-7.7v-34H996.7z"></path><path class="st4" d="M1001,61.4c0,0.5,0,0.9,0,1.4c-0.1,3.5-0.8,6.9-2.1,10.1c-1.3,3-3.1,5.6-5.5,7.8c-0.1,0.1-0.3,0.3-0.4,0.4 c-10.9,9.5-27.2,9.5-38.1,0c-5.4-4.8-8.1-11.3-8.1-19.7s2.7-14.9,8.1-19.6c10.9-9.5,27.2-9.5,38.1,0c4.5,4,7.3,9.5,7.8,15.5 C1000.9,58.6,1001,60,1001,61.4z"></path><path class="st4" d="M1101,266.9c-2.8,0.9-5.6,1.6-8.6,2.4c-6.7,1.6-14.9,2.5-24.7,2.4c-12.4,0-22.7-1.7-30.8-5 c-7.6-2.9-14.3-7.8-19.5-14c-4.6-5.8-7.9-12.6-9.7-19.8c-0.2-0.7-0.3-1.3-0.5-2c-2-9.3-3-18.8-2.9-28.4V67.8l1.7-0.3l5.7-0.9 l38.1-6.1v47.2h44.4l0.8,5.1l5.2,32.7h-50.4v56.4c0,9.6,1.7,17.2,5,22.9s10.1,8.5,20.3,8.5c2,0,4-0.1,6-0.2 c0.9,5.2,2.5,10.3,4.8,15.1C1089.3,255.5,1094.5,261.9,1101,266.9z"></path><path class="st4" d="M1228.5,241c-2-8.4-3-17.1-2.9-25.7v-73.5c-2-7.7-5.9-14.8-11.4-20.6c-5.4-5.7-12.6-10.1-21.5-13.1 s-20.1-4.6-33.5-4.6c-5.3,0-10.5,0.2-15.7,0.8c-5.2,0.5-10.1,1.1-14.8,1.8s-9,1.5-13,2.4l-0.4,0.1c-2,0.5-3.8,0.9-5.5,1.4 c-1.5,0.4-2.8,0.8-4,1.1l4,25.1l1.8,11.4c1.2-0.4,2.4-0.9,3.7-1.2c5.2-1.6,10.5-2.7,15.8-3.5c7.6-1.1,15.2-1.7,22.9-1.7 c11.6,0,19.7,2.3,24.4,7c4.7,4.7,7,10.9,7,18.6v4.3c-3.6-1-7.4-1.6-11.1-2c-5.2-0.5-10.5-0.8-15.7-0.8c-8.5,0-17,0.9-25.3,2.6 c-7.6,1.5-15,4.4-21.7,8.4c-6.3,3.8-11.5,9.2-15.1,15.5c-3.7,6.5-5.6,14.4-5.6,23.8c0,0.6,0,1.3,0,1.9c0,1.9,0.2,3.8,0.3,5.6 s0.4,3.7,0.8,5.5c0.7,4.1,2,8,3.8,11.8c3.1,6.6,8,12.2,14,16.3c0.1,0.1,0.2,0.1,0.2,0.2c2,1.3,4.1,2.6,6.2,3.6c2,1,4,1.9,6.1,2.6 c3,1.1,6.1,2,9.2,2.6c9.3,1.9,18.7,2.8,28.2,2.8c16.5,0,30.5-1,42.1-2.9s20.6-3.6,27.1-5v-20.8 C1228.8,242.1,1228.6,241.6,1228.5,241z M1185.3,235.1c-3.2,0.5-6.5,0.8-9.8,0.9c-4.1,0.2-8.3,0.3-12.8,0.3 c-8.3,0-14.9-1.4-19.7-4.1c-4.8-2.7-7.2-7.7-7.2-14.8c-0.1-3.2,0.7-6.4,2.4-9.1c1.7-2.5,4-4.5,6.7-5.8c3.1-1.5,6.5-2.5,9.9-2.9 c7.3-1,14.8-1,22.1-0.2c3.7,0.4,6.4,0.8,8.2,1.2L1185.3,235.1z"></path><path class="st4" d="M1306.9,233.6l-6.4,37.5c-13.2-0.2-23.9-1.6-32.2-4.3s-14.7-6.4-19.5-11.1c-4.1-4.1-7.2-9.1-9-14.7 c-0.3-0.9-0.6-1.8-0.8-2.7c-1.8-7.5-2.7-15.3-2.6-23V38.8l45.4-7.3v174.6c0,3.7,0.3,7.4,0.9,11c0.5,3,1.7,5.8,3.5,8.2 c2,2.4,4.6,4.3,7.5,5.5C1298,232.5,1302.4,233.4,1306.9,233.6z"></path></svg>